<?xml version="1.0" encoding="utf-8"?>
<!-- Generator: Adobe Illustrator 25.4.1, SVG Export Plug-In . SVG Version: 6.00 Build 0)  -->
<svg version="1.1" id="Calque_1" xmlns="http://www.w3.org/2000/svg" xmlns:xlink="http://www.w3.org/1999/xlink" x="0px" y="0px"
	 viewBox="0 0 37 37" style="enable-background:new 0 0 37 37;" xml:space="preserve">
<path d="M24.7,37H12.2c-3.9,0-7.2-2.5-8.3-6.2v-0.1L0,12.9h37l-3.9,17.9C32,34.5,28.6,37,24.7,37z M6.8,30c0.8,2.4,2.9,4,5.4,4h12.5
	c2.5,0,4.7-1.6,5.5-4l3-14H3.8L6.8,30z"/>
<path d="M25.4,10.2c-0.8-4.1-3.6-7.1-6.9-7.1s-6.1,3-6.9,7.1l-3-0.6C9.7,4,13.7,0,18.5,0s8.8,4,9.9,9.6L25.4,10.2z"/>
</svg>
