<?xml version="1.0" encoding="utf-8"?>
<!-- Generator: Adobe Illustrator 24.1.0, SVG Export Plug-In . SVG Version: 6.00 Build 0)  -->
<svg version="1.1" id="Calque_1" xmlns="http://www.w3.org/2000/svg" xmlns:xlink="http://www.w3.org/1999/xlink" x="0px" y="0px"
	 viewBox="0 0 2001.3 186.08" style="enable-background:new 0 0 2001.3 186.08;" xml:space="preserve">
<g>
	<g>
		<g>
			<path d="M346.9,34.47h5.08v28.16c0,5.55-1.58,10.11-4.69,13.62c-3.1,3.5-7.4,5.29-12.88,5.29c-5.48,0-9.77-1.78-12.88-5.29
				c-3.1-3.5-4.69-8.06-4.69-13.62V34.47h5.08v28.23c0,4.1,1.06,7.47,3.24,10.18c2.18,2.64,5.28,3.97,9.25,3.97
				c3.96,0,7-1.32,9.18-4.03c2.18-2.71,3.3-6.08,3.3-10.18V34.47z"/>
		</g>
	</g>
	<g>
		<g>
			<path d="M1013.69,81.17l-26.28-37.55v37.55h-5.02V34.83h5.15l26.28,37.68V34.83h5.09v46.34H1013.69z"/>
		</g>
	</g>
	<g>
		<g>
			<path d="M1664.37,81.17V34.83h5.02v46.34H1664.37z"/>
		</g>
	</g>
	<g>
		<g>
			<rect x="666.23" y="0" width="2.6" height="116"/>
		</g>
	</g>
	<g>
		<g>
			<rect x="0" y="0" width="2.6" height="116"/>
		</g>
	</g>
	<g>
		<g>
			<rect x="1998.7" y="0" width="2.6" height="116"/>
		</g>
	</g>
	<g>
		<g>
			<rect x="1332.47" y="0" width="2.6" height="116"/>
		</g>
	</g>
	<g>
		<path d="M3.22,184.46v-7.38h0.6c0.75,6.96,3.63,7.92,6.29,7.92c2.55,0,5.12-1.38,5.12-4.29c0-2.16-1.92-3.33-4.35-4.38l-2.34-1.02
			c-3.18-1.38-5.18-3.42-5.18-6.3c0-3.3,3.24-5.76,7.19-5.76c2.19,0,4.58,0.48,6.05,1.38l0.12,6.3h-0.6c-0.72-5.34-3-6.6-5.66-6.6
			c-2.4,0-4.5,1.29-4.5,3.6c0,2.31,1.92,3.33,3.42,3.99l2.34,1.02c3.51,1.53,6.17,3.15,6.17,6.63c0,4.29-3.93,6.51-7.79,6.51
			C7.42,186.08,4.81,185.39,3.22,184.46z"/>
		<path d="M55.79,185.12c2.94-0.27,3.3-0.72,3.3-3.81v-16.44H58.1c-4.53,0-5.84,0.57-7.52,5.55h-0.57l0.87-6.57
			c2.25,0.09,4.79,0.09,6.62,0.09h6.47c1.83,0,4.38,0,6.62-0.09l0.87,6.57h-0.54c-1.71-4.98-3.03-5.55-7.55-5.55h-0.99v16.44
			c0,3.09,0.36,3.54,3.3,3.81v0.57h-9.89V185.12z"/>
		<path d="M102.84,164.48v-0.54h9.23v0.54c-2.61,0.36-2.97,0.45-2.97,3.84v8.88c0,4.68,1.68,7.44,5.63,7.44
			c4.65,0,5.96-3.54,5.96-7.89v-8.43c0-3.39-0.36-3.48-2.97-3.84v-0.54h7.31v0.54c-2.61,0.36-2.97,0.45-2.97,3.84v8.4
			c0,6.24-2.55,9.36-8.18,9.36c-6.08,0-8.09-3.57-8.09-8.58v-9.18C105.81,164.93,105.45,164.84,102.84,164.48z"/>
		<path d="M166.62,163.94c5.63,0,11.36,3.18,11.36,10.86s-5.72,10.89-11.36,10.89h-9.77v-0.54c2.61-0.36,2.97-0.45,2.97-3.84v-12.99
			c0-3.39-0.36-3.48-2.97-3.84v-0.54H166.62z M166.62,184.61c4.35,0,7.7-3.39,7.7-9.81s-3.36-9.78-7.7-9.78h-3.51v19.59H166.62z"/>
		<path d="M216.88,181.31c0,3.39,0.36,3.48,2.97,3.84v0.54h-9.23v-0.54c2.61-0.36,2.97-0.45,2.97-3.84v-12.99
			c0-3.39-0.36-3.48-2.97-3.84v-0.54h9.23v0.54c-2.61,0.36-2.97,0.45-2.97,3.84V181.31z"/>
		<path d="M263.64,163.34c5.63,0,11.15,4.08,11.15,11.37c0,7.29-5.51,11.37-11.15,11.37c-5.63,0-11.15-4.08-11.15-11.37
			C252.49,167.42,258,163.34,263.64,163.34z M263.64,164.42c-4.35,0-7.46,4.17-7.46,10.29c0,6.12,3.12,10.29,7.46,10.29
			c4.35,0,7.46-4.17,7.46-10.29C271.1,168.59,267.98,164.42,263.64,164.42z"/>
		<path d="M356.84,163.94c5.63,0,11.36,3.18,11.36,10.86s-5.72,10.89-11.36,10.89h-9.77v-0.54c2.61-0.36,2.97-0.45,2.97-3.84v-12.99
			c0-3.39-0.36-3.48-2.97-3.84v-0.54H356.84z M356.84,184.61c4.35,0,7.7-3.39,7.7-9.81s-3.36-9.78-7.7-9.78h-3.51v19.59H356.84z"/>
		<path d="M411.86,185.69h-11.03v-0.54c2.61-0.36,2.97-0.45,2.97-3.84v-12.99c0-3.39-0.36-3.48-2.97-3.84v-0.54h10.58
			c1.83,0,4.41,0,6.62-0.09l0.87,6.57h-0.54c-1.71-5.34-4.05-5.4-9.53-5.4h-1.74v8.79h4.23c1.71,0,2.79-0.84,3.09-3.36h0.54v8.04
			h-0.54c-0.3-2.52-1.38-3.36-3.09-3.36h-4.23v8.16c0,1.11,0.15,1.38,1.35,1.38h0.48c5.72,0,8.36-0.51,10.16-5.55h0.57l-1.17,6.6
			C416.24,185.69,413.69,185.69,411.86,185.69z"/>
		<path d="M503.39,184.64c4.29,0,6.68-2.76,7.55-5.1l0.81,0.3c-0.78,3.09-3.93,6.24-8.87,6.24c-6.83,0-10.79-5.19-10.79-11.4
			c0-7.02,5.36-11.34,11.63-11.34c2.19,0,4.29,0.36,6.38,1.2l0.63,6.57h-0.54c-1.14-5.01-3.42-6.69-7.07-6.69
			c-3.63,0-7.37,2.94-7.37,10.29C495.74,180.95,498.77,184.64,503.39,184.64z"/>
		<path d="M543.85,185.15c2.61-0.36,2.97-0.45,2.97-3.84v-12.99c0-3.39-0.36-3.48-2.97-3.84v-0.54h3.54c1.92,0,4.29-0.03,5.54-0.03
			c5.09,0,9.29,1.14,9.29,5.73c0,3.45-2.37,4.95-5.69,5.49l4.5,6.96c1.41,2.19,2.4,2.88,4.08,3.06v0.54h-5.93
			c-0.45-0.96-1.53-2.85-2.46-4.26l-1.62-2.55c-1.05-1.59-1.65-2.76-2.16-3.51h-2.82v5.97c0,3.39,0.36,3.45,2.97,3.81v0.54h-9.23
			V185.15z M552.69,165.02h-2.58v9.24h2.58c3.72,0,5.87-0.66,5.87-4.62S556.4,165.02,552.69,165.02z"/>
		<path d="M606.73,185.69H595.7v-0.54c2.61-0.36,2.97-0.45,2.97-3.84v-12.99c0-3.39-0.36-3.48-2.97-3.84v-0.54h10.58
			c1.83,0,4.41,0,6.62-0.09l0.87,6.57h-0.54c-1.71-5.34-4.05-5.4-9.53-5.4h-1.74v8.79h4.23c1.71,0,2.79-0.84,3.09-3.36h0.54v8.04
			h-0.54c-0.3-2.52-1.38-3.36-3.09-3.36h-4.23v8.16c0,1.11,0.15,1.38,1.35,1.38h0.48c5.72,0,8.36-0.51,10.16-5.55h0.57l-1.17,6.6
			C611.1,185.69,608.55,185.69,606.73,185.69z M605.35,161.9h-0.63l2.49-3.87h4.71L605.35,161.9z"/>
		<path d="M645.96,185.15c2.04-0.18,2.34-0.72,4.08-5.1l6.5-16.32c0.6-0.06,1.17-0.39,1.56-0.93h0.12l7.73,19.35
			c0.9,2.25,1.2,2.91,3.18,3v0.54h-8.69v-0.54c2.07-0.24,2.73-0.81,2.13-2.34l-1.68-4.2h-8.87l-0.15,0.42
			c-2.16,5.52-1.77,5.88,0.81,6.12v0.54h-6.71V185.15z M652.61,177.14h7.7l-3.87-9.75L652.61,177.14z"/>
		<path d="M703.08,185.12c2.94-0.27,3.3-0.72,3.3-3.81v-16.44h-0.99c-4.53,0-5.84,0.57-7.52,5.55h-0.57l0.87-6.57
			c2.25,0.09,4.79,0.09,6.62,0.09h6.47c1.83,0,4.38,0,6.62-0.09l0.87,6.57h-0.54c-1.71-4.98-3.03-5.55-7.55-5.55h-0.99v16.44
			c0,3.09,0.36,3.54,3.3,3.81v0.57h-9.89V185.12z"/>
		<path d="M756.91,181.31c0,3.39,0.36,3.48,2.97,3.84v0.54h-9.23v-0.54c2.61-0.36,2.97-0.45,2.97-3.84v-12.99
			c0-3.39-0.36-3.48-2.97-3.84v-0.54h9.23v0.54c-2.61,0.36-2.97,0.45-2.97,3.84V181.31z"/>
		<path d="M803.66,163.34c5.63,0,11.15,4.08,11.15,11.37c0,7.29-5.51,11.37-11.15,11.37c-5.63,0-11.15-4.08-11.15-11.37
			C792.52,167.42,798.03,163.34,803.66,163.34z M803.66,164.42c-4.35,0-7.46,4.17-7.46,10.29c0,6.12,3.12,10.29,7.46,10.29
			c4.35,0,7.46-4.17,7.46-10.29C811.13,168.59,808.01,164.42,803.66,164.42z"/>
		<path d="M862.53,164.48v-0.54h7.31v0.54c-2.61,0.36-2.97,0.45-2.97,3.84v17.67h-1.23l-13.91-17.46v12.78
			c0,3.39,0.36,3.48,2.97,3.84v0.54h-7.31v-0.54c2.61-0.36,2.97-0.45,2.97-3.84v-14.52c-0.99-1.26-1.62-1.92-2.52-2.37v-0.48h4.53
			l13.13,16.5v-12.12C865.49,164.93,865.14,164.84,862.53,164.48z"/>
		<path d="M952.19,185.69h-11.03v-0.54c2.61-0.36,2.97-0.45,2.97-3.84v-12.99c0-3.39-0.36-3.48-2.97-3.84v-0.54h10.58
			c1.83,0,4.41,0,6.62-0.09l0.87,6.57h-0.54c-1.71-5.34-4.05-5.4-9.53-5.4h-1.74v8.79h4.23c1.71,0,2.79-0.84,3.09-3.36h0.54v8.04
			h-0.54c-0.3-2.52-1.38-3.36-3.09-3.36h-4.23v8.16c0,1.11,0.15,1.38,1.35,1.38h0.48c5.72,0,8.36-0.51,10.16-5.55h0.57l-1.17,6.6
			C956.57,185.69,954.02,185.69,952.19,185.69z"/>
		<path d="M1007.52,164.48v-0.54h7.31v0.54c-2.61,0.36-2.97,0.45-2.97,3.84v17.67h-1.23l-13.91-17.46v12.78
			c0,3.39,0.36,3.48,2.97,3.84v0.54h-7.31v-0.54c2.61-0.36,2.97-0.45,2.97-3.84v-14.52c-0.99-1.26-1.62-1.92-2.52-2.37v-0.48h4.53
			l13.13,16.5v-12.12C1010.48,164.93,1010.12,164.84,1007.52,164.48z"/>
		<path d="M1051.88,185.12c2.94-0.27,3.3-0.72,3.3-3.81v-16.44h-0.99c-4.53,0-5.84,0.57-7.52,5.55h-0.57l0.87-6.57
			c2.25,0.09,4.79,0.09,6.62,0.09h6.47c1.83,0,4.38,0,6.62-0.09l0.87,6.57h-0.54c-1.71-4.98-3.03-5.55-7.55-5.55h-0.99v16.44
			c0,3.09,0.36,3.54,3.3,3.81v0.57h-9.89V185.12z"/>
		<path d="M1099.44,185.15c2.61-0.36,2.97-0.45,2.97-3.84v-12.99c0-3.39-0.36-3.48-2.97-3.84v-0.54h3.54c1.92,0,4.29-0.03,5.54-0.03
			c5.09,0,9.29,1.14,9.29,5.73c0,3.45-2.37,4.95-5.69,5.49l4.5,6.96c1.41,2.19,2.4,2.88,4.08,3.06v0.54h-5.93
			c-0.45-0.96-1.53-2.85-2.46-4.26l-1.62-2.55c-1.05-1.59-1.65-2.76-2.16-3.51h-2.82v5.97c0,3.39,0.36,3.45,2.97,3.81v0.54h-9.23
			V185.15z M1108.28,165.02h-2.58v9.24h2.58c3.72,0,5.87-0.66,5.87-4.62S1112,165.02,1108.28,165.02z"/>
		<path d="M1162.32,185.69h-11.03v-0.54c2.61-0.36,2.97-0.45,2.97-3.84v-12.99c0-3.39-0.36-3.48-2.97-3.84v-0.54h10.58
			c1.83,0,4.41,0,6.62-0.09l0.87,6.57h-0.54c-1.71-5.34-4.05-5.4-9.53-5.4h-1.74v8.79h4.23c1.71,0,2.79-0.84,3.09-3.36h0.54v8.04
			h-0.54c-0.3-2.52-1.38-3.36-3.09-3.36h-4.23v8.16c0,1.11,0.15,1.38,1.35,1.38h0.48c5.72,0,8.36-0.51,10.16-5.55h0.57l-1.17,6.6
			C1166.69,185.69,1164.15,185.69,1162.32,185.69z"/>
		<path d="M1262.02,181.31c0,3.39,0.36,3.48,2.97,3.84v0.54h-9.23v-0.54c2.61-0.36,2.97-0.45,2.97-3.84v-6.18h-10.25v6.18
			c0,3.39,0.36,3.48,2.97,3.84v0.54h-9.23v-0.54c2.61-0.36,2.97-0.45,2.97-3.84v-12.99c0-3.39-0.36-3.48-2.97-3.84v-0.54h9.23v0.54
			c-2.61,0.36-2.97,0.45-2.97,3.84v5.49h10.25v-5.49c0-3.39-0.36-3.48-2.97-3.84v-0.54h9.23v0.54c-2.61,0.36-2.97,0.45-2.97,3.84
			V181.31z"/>
		<path d="M1296.28,185.15c2.04-0.18,2.34-0.72,4.08-5.1l6.5-16.32c0.6-0.06,1.17-0.39,1.56-0.93h0.12l7.73,19.35
			c0.9,2.25,1.2,2.91,3.18,3v0.54h-8.69v-0.54c2.07-0.24,2.73-0.81,2.13-2.34l-1.68-4.2h-8.87l-0.15,0.42
			c-2.16,5.52-1.77,5.88,0.81,6.12v0.54h-6.71V185.15z M1302.93,177.14h7.7l-3.87-9.75L1302.93,177.14z"/>
		<path d="M1354.3,163.94c2.28,0,4.43-0.06,5.39-0.06c6.29,0,8.69,1.71,8.69,4.92c0,2.55-2.07,4.47-4.62,5.22v0.06
			c2.4,0.48,5.69,1.98,5.69,5.22c0,3.15-2.13,6.45-9.53,6.45c-1.05,0-3.06-0.06-5.69-0.06h-3.51v-0.54
			c2.61-0.36,2.97-0.45,2.97-3.84v-12.99c0-3.39-0.36-3.48-2.97-3.84v-0.54H1354.3z M1357,173.93h3.15c3.69,0,4.82-2.25,4.82-4.65
			c0-3.09-1.35-4.26-5.81-4.26H1357V173.93z M1357,183.62c0,0.81,0.21,1.05,1.2,1.05h1.29c4.61,0,6.38-1.77,6.38-5.13
			c0-2.91-1.41-4.56-5.66-4.56H1357V183.62z"/>
		<path d="M1408.34,181.31c0,3.39,0.36,3.48,2.97,3.84v0.54h-9.23v-0.54c2.61-0.36,2.97-0.45,2.97-3.84v-12.99
			c0-3.39-0.36-3.48-2.97-3.84v-0.54h9.23v0.54c-2.61,0.36-2.97,0.45-2.97,3.84V181.31z"/>
		<path d="M1448.98,185.12c2.94-0.27,3.3-0.72,3.3-3.81v-16.44h-0.99c-4.53,0-5.84,0.57-7.52,5.55h-0.57l0.87-6.57
			c2.25,0.09,4.79,0.09,6.62,0.09h6.47c1.83,0,4.38,0,6.62-0.09l0.87,6.57h-0.54c-1.71-4.98-3.03-5.55-7.55-5.55h-0.99v16.44
			c0,3.09,0.36,3.54,3.3,3.81v0.57h-9.89V185.12z"/>
		<path d="M1492.83,185.15c2.04-0.18,2.34-0.72,4.08-5.1l6.5-16.32c0.6-0.06,1.17-0.39,1.56-0.93h0.12l7.73,19.35
			c0.9,2.25,1.2,2.91,3.18,3v0.54h-8.69v-0.54c2.07-0.24,2.73-0.81,2.13-2.34l-1.68-4.2h-8.87l-0.15,0.42
			c-2.16,5.52-1.77,5.88,0.81,6.12v0.54h-6.71V185.15z M1499.48,177.14h7.7l-3.87-9.75L1499.48,177.14z"/>
		<path d="M1549.95,185.12c2.94-0.27,3.3-0.72,3.3-3.81v-16.44h-0.99c-4.53,0-5.84,0.57-7.52,5.55h-0.57l0.87-6.57
			c2.25,0.09,4.79,0.09,6.62,0.09h6.47c1.83,0,4.38,0,6.62-0.09l0.87,6.57h-0.54c-1.71-4.98-3.03-5.55-7.55-5.55h-0.99v16.44
			c0,3.09,0.36,3.54,3.3,3.81v0.57h-9.89V185.12z"/>
		<path d="M1637.1,179.36c0-3.45,3.03-5.19,6.02-6.24c-1.59-1.92-2.28-3.6-2.28-5.07c0-2.91,2.43-4.62,5.72-4.62
			c2.76,0,5.09,1.35,5.09,3.96c0,2.31-2.4,4.08-4.86,5.07l5.81,6.54c0.87-2.07,1.08-4.5,0.87-6.84h2.43
			c-0.12,3.06-1.11,5.64-2.46,7.8l3.54,3.99l-2.43,2.1l-2.97-3.3c-1.98,2.25-3.84,3.33-6.8,3.33
			C1640.43,186.08,1637.1,183.11,1637.1,179.36z M1640.76,178.64c0,3.27,1.92,5.88,5.09,5.88c2.22,0,3.78-1.11,5-2.64l-7.19-8.13
			c-0.03-0.03-0.06-0.03-0.06-0.06C1641.71,174.56,1640.76,176.69,1640.76,178.64z M1646.54,164.45c-1.86,0-2.7,1.23-2.7,2.58
			c0,1.83,1.05,3.21,2.49,4.86c1.53-0.69,3.21-1.98,3.21-4.44C1649.54,165.44,1648.34,164.45,1646.54,164.45z"/>
		<path d="M1740.19,163.34c5.63,0,11.15,4.08,11.15,11.37c0,7.29-5.51,11.37-11.15,11.37s-11.15-4.08-11.15-11.37
			C1729.04,167.42,1734.56,163.34,1740.19,163.34z M1740.19,164.42c-4.35,0-7.46,4.17-7.46,10.29c0,6.12,3.12,10.29,7.46,10.29
			s7.46-4.17,7.46-10.29C1747.65,168.59,1744.53,164.42,1740.19,164.42z"/>
		<path d="M1787.54,163.94c2.28,0,4.43-0.06,5.39-0.06c6.29,0,8.69,1.71,8.69,4.92c0,2.55-2.07,4.47-4.62,5.22v0.06
			c2.4,0.48,5.69,1.98,5.69,5.22c0,3.15-2.13,6.45-9.53,6.45c-1.05,0-3.06-0.06-5.69-0.06h-3.51v-0.54
			c2.61-0.36,2.97-0.45,2.97-3.84v-12.99c0-3.39-0.36-3.48-2.97-3.84v-0.54H1787.54z M1790.24,173.93h3.15
			c3.69,0,4.82-2.25,4.82-4.65c0-3.09-1.35-4.26-5.81-4.26h-2.16V173.93z M1790.24,183.62c0,0.81,0.21,1.05,1.2,1.05h1.29
			c4.61,0,6.38-1.77,6.38-5.13c0-2.91-1.41-4.56-5.66-4.56h-3.21V183.62z"/>
		<path d="M1837.21,164.48v-0.54h9.23v0.54c-2.61,0.36-2.97,0.45-2.97,3.84v10.35c0,6-2.73,7.41-5.45,7.41
			c-1.11,0-2.76-0.18-3.54-0.42v-4.02h0.33c0.78,1.32,2.22,3.36,3.51,3.36c0.93,0,1.86-0.36,1.86-6.12v-10.56
			C1840.17,164.93,1839.81,164.84,1837.21,164.48z"/>
		<path d="M1889.12,185.69h-11.03v-0.54c2.61-0.36,2.97-0.45,2.97-3.84v-12.99c0-3.39-0.36-3.48-2.97-3.84v-0.54h10.58
			c1.83,0,4.41,0,6.62-0.09l0.87,6.57h-0.54c-1.71-5.34-4.05-5.4-9.53-5.4h-1.74v8.79h4.22c1.71,0,2.79-0.84,3.09-3.36h0.54v8.04
			h-0.54c-0.3-2.52-1.38-3.36-3.09-3.36h-4.22v8.16c0,1.11,0.15,1.38,1.35,1.38h0.48c5.72,0,8.36-0.51,10.16-5.55h0.57l-1.17,6.6
			C1893.49,185.69,1890.94,185.69,1889.12,185.69z"/>
		<path d="M1934.73,185.12c2.94-0.27,3.3-0.72,3.3-3.81v-16.44h-0.99c-4.53,0-5.84,0.57-7.52,5.55h-0.57l0.87-6.57
			c2.25,0.09,4.79,0.09,6.62,0.09h6.47c1.83,0,4.38,0,6.62-0.09l0.87,6.57h-0.54c-1.71-4.98-3.03-5.55-7.55-5.55h-0.99v16.44
			c0,3.09,0.36,3.54,3.3,3.81v0.57h-9.89V185.12z"/>
		<path d="M1983.05,184.46v-7.38h0.6c0.75,6.96,3.63,7.92,6.29,7.92c2.55,0,5.12-1.38,5.12-4.29c0-2.16-1.92-3.33-4.35-4.38
			l-2.34-1.02c-3.18-1.38-5.18-3.42-5.18-6.3c0-3.3,3.24-5.76,7.19-5.76c2.19,0,4.59,0.48,6.05,1.38l0.12,6.3h-0.6
			c-0.72-5.34-3-6.6-5.66-6.6c-2.4,0-4.5,1.29-4.5,3.6c0,2.31,1.92,3.33,3.42,3.99l2.34,1.02c3.51,1.53,6.17,3.15,6.17,6.63
			c0,4.29-3.93,6.51-7.79,6.51C1987.24,186.08,1984.63,185.39,1983.05,184.46z"/>
	</g>
</g>
</svg>
