<?xml version="1.0" encoding="utf-8"?>
<!-- Generator: Adobe Illustrator 24.1.0, SVG Export Plug-In . SVG Version: 6.00 Build 0)  -->
<svg version="1.1" id="Calque_1" xmlns="http://www.w3.org/2000/svg" xmlns:xlink="http://www.w3.org/1999/xlink" x="0px" y="0px"
	 viewBox="0 0 184.9 60" style="enable-background:new 0 0 184.9 60;" xml:space="preserve">
<style type="text/css">
	.st0{fill:#0E0C11;}
</style>
<rect x="183.7" class="st0" width="1.2" height="60"/>
<path class="st0" d="M152.4,40.9V19.1h2.4v21.8H152.4z"/>
<rect x="122.4" class="st0" width="1.2" height="60"/>
<path class="st0" d="M98.2,40.4L86,22.8v17.6h-2.4V18.8H86l12.4,17.7V18.8h2.4v21.7H98.2z"/>
<rect x="61.2" class="st0" width="1.2" height="60"/>
<path class="st0" d="M37.2,18.6h2.4v13.2c0,2.6-0.7,4.7-2.2,6.4c-1.5,1.6-3.5,2.5-6.1,2.5s-4.6-0.8-6.1-2.5
	c-1.5-1.6-2.2-3.8-2.2-6.4V18.6h2.4v13.2c0,1.9,0.5,3.5,1.5,4.8c1,1.2,2.5,1.9,4.3,1.9c1.9,0,3.3-0.6,4.3-1.9c1-1.3,1.6-2.9,1.6-4.8
	V18.6H37.2z"/>
<rect class="st0" width="1.2" height="60"/>
</svg>
