<?xml version="1.0" encoding="utf-8"?>
<!-- Generator: Adobe Illustrator 25.4.1, SVG Export Plug-In . SVG Version: 6.00 Build 0)  -->
<svg version="1.1" id="Calque_1" xmlns="http://www.w3.org/2000/svg" xmlns:xlink="http://www.w3.org/1999/xlink" x="0px" y="0px"
	 viewBox="0 0 60 189.8" style="enable-background:new 0 0 60 189.8;" xml:space="preserve">
<rect y="188.6" style="fill:#0E0C11;" width="60" height="1.2"/>
<path style="fill:#0E0C11;" d="M28.8,169v-22.4h2.5V169H28.8z"/>
<rect y="125.7" style="fill:#0E0C11;" width="60" height="1.2"/>
<path style="fill:#0E0C11;" d="M36.3,106L23.6,87.9V106h-2.5V83.7h2.5l12.7,18.2V83.7h2.5V106H36.3z"/>
<rect y="62.9" style="fill:#0E0C11;" width="60" height="1.2"/>
<path style="fill:#0E0C11;" d="M36.1,20.5h2.5v13.6c0,2.7-0.7,4.8-2.3,6.6c-1.5,1.6-3.6,2.6-6.3,2.6s-4.7-0.8-6.3-2.6
	c-1.5-1.6-2.3-3.9-2.3-6.6V20.5h2.5v13.6c0,2,0.5,3.6,1.5,4.9c1,1.2,2.6,2,4.4,2c2,0,3.4-0.6,4.4-2c1-1.3,1.6-3,1.6-4.9V20.5H36.1z"
	/>
<rect style="fill:#0E0C11;" width="60" height="1.2"/>
</svg>
