<?xml version="1.0" encoding="utf-8"?>
<!-- Generator: Adobe Illustrator 25.4.1, SVG Export Plug-In . SVG Version: 6.00 Build 0)  -->
<svg version="1.1" id="Calque_1" xmlns="http://www.w3.org/2000/svg" xmlns:xlink="http://www.w3.org/1999/xlink" x="0px" y="0px"
	 viewBox="0 0 190 60" style="enable-background:new 0 0 190 60;" xml:space="preserve">
<rect x="188.8" y="0" width="1.2" height="60"/>
<path d="M156.7,41.2V18.8h2.5v22.4C159.2,41.2,156.7,41.2,156.7,41.2z"/>
<rect x="125.9" y="0" width="1.2" height="60"/>
<path d="M101.2,41L88.6,23v18h-2.5V18.9h2.5L101.4,37V18.9h2.5v22.3h-2.7C101.2,41.2,101.2,41,101.2,41z"/>
<rect x="62.9" y="0" width="1.2" height="60"/>
<path d="M38.1,18.6h2.5v13.6c0,2.7-0.7,4.8-2.3,6.6c-1.5,1.6-3.6,2.6-6.3,2.6s-4.7-0.8-6.3-2.6c-1.5-1.6-2.3-3.9-2.3-6.6V18.6H26
	v13.6c0,2,0.5,3.6,1.5,4.9c1,1.2,2.6,2,4.4,2c2,0,3.4-0.6,4.4-2c1-1.3,1.6-3,1.6-4.9V18.6H38.1z"/>
<rect y="0" width="1.2" height="60"/>
</svg>
