<?xml version="1.0" encoding="utf-8"?>
<!-- Generator: Adobe Illustrator 24.1.0, SVG Export Plug-In . SVG Version: 6.00 Build 0)  -->
<svg version="1.1" id="Calque_1" xmlns="http://www.w3.org/2000/svg" xmlns:xlink="http://www.w3.org/1999/xlink" x="0px" y="0px"
	 viewBox="0 0 60 184.9" style="enable-background:new 0 0 60 184.9;" xml:space="preserve">
<style type="text/css">
	.st0{fill:#0E0C11;}
</style>
<rect x="0" y="183.7" class="st0" width="60" height="1.2"/>
<path class="st0" d="M28.8,164.5v-21.8h2.4v21.8H28.8z"/>
<rect x="0" y="122.4" class="st0" width="60" height="1.2"/>
<path class="st0" d="M36.5,103L24.2,85.4V103h-2.4V81.3h2.4L36.6,99V81.3H39V103H36.5z"/>
<rect x="0" y="61.2" class="st0" width="60" height="1.2"/>
<path class="st0" d="M36.2,20.2h2.4v13.2c0,2.6-0.7,4.7-2.2,6.4c-1.5,1.6-3.5,2.5-6.1,2.5s-4.6-0.8-6.1-2.5
	c-1.5-1.6-2.2-3.8-2.2-6.4V20.2h2.4v13.2c0,1.9,0.5,3.5,1.5,4.8c1,1.2,2.5,1.9,4.3,1.9c1.9,0,3.3-0.6,4.3-1.9c1-1.3,1.6-2.9,1.6-4.8
	V20.2z"/>
<rect x="0" y="0" class="st0" width="60" height="1.2"/>
</svg>
