<?xml version="1.0" encoding="utf-8"?>
<!-- Generator: Adobe Illustrator 24.1.0, SVG Export Plug-In . SVG Version: 6.00 Build 0)  -->
<svg version="1.1" id="Calque_1" xmlns="http://www.w3.org/2000/svg" xmlns:xlink="http://www.w3.org/1999/xlink" x="0px" y="0px"
	 viewBox="0 0 2001.3 186.1" style="enable-background:new 0 0 2001.3 186.1;" xml:space="preserve">
<style type="text/css">
	.st0{fill:#FFFFFF;}
</style>
<g>
	<g>
		<g>
			<path class="st0" d="M346.9,34.5h5.1v28.2c0,5.5-1.6,10.1-4.7,13.6c-3.1,3.5-7.4,5.3-12.9,5.3s-9.8-1.8-12.9-5.3
				c-3.1-3.5-4.7-8.1-4.7-13.6V34.5h5.1v28.2c0,4.1,1.1,7.5,3.2,10.2c2.2,2.6,5.3,4,9.2,4c4,0,7-1.3,9.2-4s3.3-6.1,3.3-10.2
				L346.9,34.5L346.9,34.5z"/>
		</g>
	</g>
	<g>
		<g>
			<path class="st0" d="M1013.7,81.2l-26.3-37.5v37.5h-5V34.8h5.2l26.3,37.7V34.8h5.1v46.3H1013.7z"/>
		</g>
	</g>
	<g>
		<g>
			<path class="st0" d="M1664.4,81.2V34.8h5v46.3H1664.4z"/>
		</g>
	</g>
	<g>
		<g>
			<rect x="666.2" class="st0" width="2.6" height="116"/>
		</g>
	</g>
	<g>
		<g>
			<rect class="st0" width="2.6" height="116"/>
		</g>
	</g>
	<g>
		<g>
			<rect x="1998.7" class="st0" width="2.6" height="116"/>
		</g>
	</g>
	<g>
		<g>
			<rect x="1332.5" class="st0" width="2.6" height="116"/>
		</g>
	</g>
	<g>
		<path class="st0" d="M3.2,184.5v-7.4h0.6c0.8,7,3.6,7.9,6.3,7.9c2.6,0,5.1-1.4,5.1-4.3c0-2.2-1.9-3.3-4.3-4.4l-2.3-1
			c-3.2-1.4-5.2-3.4-5.2-6.3c0-3.3,3.2-5.8,7.2-5.8c2.2,0,4.6,0.5,6.1,1.4l0.1,6.3h-0.6c-0.7-5.3-3-6.6-5.7-6.6
			c-2.4,0-4.5,1.3-4.5,3.6c0,2.3,1.9,3.3,3.4,4l2.3,1c3.5,1.5,6.2,3.1,6.2,6.6c0,4.3-3.9,6.5-7.8,6.5C7.4,186.1,4.8,185.4,3.2,184.5
			z"/>
		<path class="st0" d="M55.8,185.1c2.9-0.3,3.3-0.7,3.3-3.8v-16.4h-1c-4.5,0-5.8,0.6-7.5,5.6H50l0.9-6.6c2.2,0.1,4.8,0.1,6.6,0.1H64
			c1.8,0,4.4,0,6.6-0.1l0.9,6.6h-0.5c-1.7-5-3-5.6-7.5-5.6h-1v16.4c0,3.1,0.4,3.5,3.3,3.8v0.6h-9.9V185.1z"/>
		<path class="st0" d="M102.8,164.5v-0.5h9.2v0.5c-2.6,0.4-3,0.4-3,3.8v8.9c0,4.7,1.7,7.4,5.6,7.4c4.7,0,6-3.5,6-7.9v-8.4
			c0-3.4-0.4-3.5-3-3.8v-0.5h7.3v0.5c-2.6,0.4-3,0.4-3,3.8v8.4c0,6.2-2.6,9.4-8.2,9.4c-6.1,0-8.1-3.6-8.1-8.6v-9.2
			C105.8,164.9,105.4,164.8,102.8,164.5z"/>
		<path class="st0" d="M166.6,163.9c5.6,0,11.4,3.2,11.4,10.9s-5.7,10.9-11.4,10.9h-9.8v-0.5c2.6-0.4,3-0.4,3-3.8v-13
			c0-3.4-0.4-3.5-3-3.8v-0.5L166.6,163.9L166.6,163.9z M166.6,184.6c4.4,0,7.7-3.4,7.7-9.8s-3.4-9.8-7.7-9.8h-3.5v19.6H166.6z"/>
		<path class="st0" d="M216.9,181.3c0,3.4,0.4,3.5,3,3.8v0.5h-9.2v-0.5c2.6-0.4,3-0.4,3-3.8v-13c0-3.4-0.4-3.5-3-3.8v-0.5h9.2v0.5
			c-2.6,0.4-3,0.4-3,3.8V181.3z"/>
		<path class="st0" d="M263.6,163.3c5.6,0,11.1,4.1,11.1,11.4s-5.5,11.4-11.1,11.4c-5.6,0-11.1-4.1-11.1-11.4
			C252.5,167.4,258,163.3,263.6,163.3z M263.6,164.4c-4.4,0-7.5,4.2-7.5,10.3s3.1,10.3,7.5,10.3c4.4,0,7.5-4.2,7.5-10.3
			S268,164.4,263.6,164.4z"/>
		<path class="st0" d="M356.8,163.9c5.6,0,11.4,3.2,11.4,10.9s-5.7,10.9-11.4,10.9h-9.8v-0.5c2.6-0.4,3-0.4,3-3.8v-13
			c0-3.4-0.4-3.5-3-3.8v-0.5L356.8,163.9L356.8,163.9z M356.8,184.6c4.4,0,7.7-3.4,7.7-9.8s-3.4-9.8-7.7-9.8h-3.5v19.6H356.8z"/>
		<path class="st0" d="M411.9,185.7h-11v-0.5c2.6-0.4,3-0.4,3-3.8v-13c0-3.4-0.4-3.5-3-3.8v-0.5h10.6c1.8,0,4.4,0,6.6-0.1l0.9,6.6
			h-0.5c-1.7-5.3-4-5.4-9.5-5.4h-1.7v8.8h4.2c1.7,0,2.8-0.8,3.1-3.4h0.5v8h-0.5c-0.3-2.5-1.4-3.4-3.1-3.4h-4.2v8.2
			c0,1.1,0.1,1.4,1.4,1.4h0.5c5.7,0,8.4-0.5,10.2-5.6h0.6l-1.2,6.6C416.2,185.7,413.7,185.7,411.9,185.7z"/>
		<path class="st0" d="M503.4,184.6c4.3,0,6.7-2.8,7.5-5.1l0.8,0.3c-0.8,3.1-3.9,6.2-8.9,6.2c-6.8,0-10.8-5.2-10.8-11.4
			c0-7,5.4-11.3,11.6-11.3c2.2,0,4.3,0.4,6.4,1.2l0.6,6.6h-0.5c-1.1-5-3.4-6.7-7.1-6.7c-3.6,0-7.4,2.9-7.4,10.3
			C495.7,180.9,498.8,184.6,503.4,184.6z"/>
		<path class="st0" d="M543.8,185.1c2.6-0.4,3-0.4,3-3.8v-13c0-3.4-0.4-3.5-3-3.8v-0.5h3.5c1.9,0,4.3,0,5.5,0c5.1,0,9.3,1.1,9.3,5.7
			c0,3.4-2.4,4.9-5.7,5.5l4.5,7c1.4,2.2,2.4,2.9,4.1,3.1v0.5h-5.9c-0.5-1-1.5-2.9-2.5-4.3l-1.6-2.6c-1-1.6-1.7-2.8-2.2-3.5h-2.8v6
			c0,3.4,0.4,3.4,3,3.8v0.5h-9.2L543.8,185.1L543.8,185.1z M552.7,165h-2.6v9.2h2.6c3.7,0,5.9-0.7,5.9-4.6S556.4,165,552.7,165z"/>
		<path class="st0" d="M606.7,185.7h-11v-0.5c2.6-0.4,3-0.4,3-3.8v-13c0-3.4-0.4-3.5-3-3.8v-0.5h10.6c1.8,0,4.4,0,6.6-0.1l0.9,6.6
			h-0.5c-1.7-5.3-4-5.4-9.5-5.4H602v8.8h4.2c1.7,0,2.8-0.8,3.1-3.4h0.5v8h-0.5c-0.3-2.5-1.4-3.4-3.1-3.4H602v8.2
			c0,1.1,0.2,1.4,1.3,1.4h0.5c5.7,0,8.4-0.5,10.2-5.6h0.6l-1.2,6.6C611.1,185.7,608.5,185.7,606.7,185.7z M605.3,161.9h-0.6l2.5-3.9
			h4.7L605.3,161.9z"/>
		<path class="st0" d="M646,185.1c2-0.2,2.3-0.7,4.1-5.1l6.5-16.3c0.6-0.1,1.2-0.4,1.6-0.9h0.1l7.7,19.4c0.9,2.2,1.2,2.9,3.2,3v0.5
			h-8.7v-0.5c2.1-0.2,2.7-0.8,2.1-2.3l-1.7-4.2H652l-0.2,0.4c-2.2,5.5-1.8,5.9,0.8,6.1v0.5H646L646,185.1L646,185.1z M652.6,177.1
			h7.7l-3.9-9.8L652.6,177.1z"/>
		<path class="st0" d="M703.1,185.1c2.9-0.3,3.3-0.7,3.3-3.8v-16.4h-1c-4.5,0-5.8,0.6-7.5,5.6h-0.6l0.9-6.6c2.2,0.1,4.8,0.1,6.6,0.1
			h6.5c1.8,0,4.4,0,6.6-0.1l0.9,6.6h-0.5c-1.7-5-3-5.6-7.5-5.6h-1v16.4c0,3.1,0.4,3.5,3.3,3.8v0.6h-9.9L703.1,185.1L703.1,185.1z"/>
		<path class="st0" d="M756.9,181.3c0,3.4,0.4,3.5,3,3.8v0.5h-9.2v-0.5c2.6-0.4,3-0.4,3-3.8v-13c0-3.4-0.4-3.5-3-3.8v-0.5h9.2v0.5
			c-2.6,0.4-3,0.4-3,3.8V181.3z"/>
		<path class="st0" d="M803.7,163.3c5.6,0,11.2,4.1,11.2,11.4s-5.5,11.4-11.2,11.4c-5.6,0-11.2-4.1-11.2-11.4
			C792.5,167.4,798,163.3,803.7,163.3z M803.7,164.4c-4.3,0-7.5,4.2-7.5,10.3s3.1,10.3,7.5,10.3c4.3,0,7.5-4.2,7.5-10.3
			C811.1,168.6,808,164.4,803.7,164.4z"/>
		<path class="st0" d="M862.5,164.5v-0.5h7.3v0.5c-2.6,0.4-3,0.4-3,3.8V186h-1.2l-13.9-17.5v12.8c0,3.4,0.4,3.5,3,3.8v0.5h-7.3v-0.5
			c2.6-0.4,3-0.4,3-3.8v-14.5c-1-1.3-1.6-1.9-2.5-2.4v-0.5h4.5l13.1,16.5v-12.1C865.5,164.9,865.1,164.8,862.5,164.5z"/>
		<path class="st0" d="M952.2,185.7h-11v-0.5c2.6-0.4,3-0.4,3-3.8v-13c0-3.4-0.4-3.5-3-3.8v-0.5h10.6c1.8,0,4.4,0,6.6-0.1l0.9,6.6
			h-0.5c-1.7-5.3-4-5.4-9.5-5.4h-1.7v8.8h4.2c1.7,0,2.8-0.8,3.1-3.4h0.5v8h-0.5c-0.3-2.5-1.4-3.4-3.1-3.4h-4.2v8.2
			c0,1.1,0.2,1.4,1.3,1.4h0.5c5.7,0,8.4-0.5,10.2-5.6h0.6l-1.2,6.6C956.6,185.7,954,185.7,952.2,185.7z"/>
		<path class="st0" d="M1007.5,164.5v-0.5h7.3v0.5c-2.6,0.4-3,0.4-3,3.8V186h-1.2l-13.9-17.5v12.8c0,3.4,0.4,3.5,3,3.8v0.5h-7.3
			v-0.5c2.6-0.4,3-0.4,3-3.8v-14.5c-1-1.3-1.6-1.9-2.5-2.4v-0.5h4.5l13.1,16.5v-12.1C1010.5,164.9,1010.1,164.8,1007.5,164.5z"/>
		<path class="st0" d="M1051.9,185.1c2.9-0.3,3.3-0.7,3.3-3.8v-16.4h-1c-4.5,0-5.8,0.6-7.5,5.6h-0.6l0.9-6.6
			c2.2,0.1,4.8,0.1,6.6,0.1h6.5c1.8,0,4.4,0,6.6-0.1l0.9,6.6h-0.5c-1.7-5-3-5.6-7.6-5.6h-1v16.4c0,3.1,0.4,3.5,3.3,3.8v0.6h-9.9
			V185.1z"/>
		<path class="st0" d="M1099.4,185.1c2.6-0.4,3-0.4,3-3.8v-13c0-3.4-0.4-3.5-3-3.8v-0.5h3.5c1.9,0,4.3,0,5.5,0
			c5.1,0,9.3,1.1,9.3,5.7c0,3.4-2.4,4.9-5.7,5.5l4.5,7c1.4,2.2,2.4,2.9,4.1,3.1v0.5h-5.9c-0.4-1-1.5-2.9-2.5-4.3l-1.6-2.6
			c-1.1-1.6-1.7-2.8-2.2-3.5h-2.8v6c0,3.4,0.4,3.4,3,3.8v0.5h-9.2L1099.4,185.1L1099.4,185.1z M1108.3,165h-2.6v9.2h2.6
			c3.7,0,5.9-0.7,5.9-4.6S1112,165,1108.3,165z"/>
		<path class="st0" d="M1162.3,185.7h-11v-0.5c2.6-0.4,3-0.4,3-3.8v-13c0-3.4-0.4-3.5-3-3.8v-0.5h10.6c1.8,0,4.4,0,6.6-0.1l0.9,6.6
			h-0.5c-1.7-5.3-4.1-5.4-9.5-5.4h-1.7v8.8h4.2c1.7,0,2.8-0.8,3.1-3.4h0.5v8h-0.5c-0.3-2.5-1.4-3.4-3.1-3.4h-4.2v8.2
			c0,1.1,0.2,1.4,1.3,1.4h0.5c5.7,0,8.4-0.5,10.2-5.6h0.6l-1.2,6.6C1166.7,185.7,1164.2,185.7,1162.3,185.7z"/>
		<path class="st0" d="M1262,181.3c0,3.4,0.4,3.5,3,3.8v0.5h-9.2v-0.5c2.6-0.4,3-0.4,3-3.8v-6.2h-10.2v6.2c0,3.4,0.4,3.5,3,3.8v0.5
			h-9.2v-0.5c2.6-0.4,3-0.4,3-3.8v-13c0-3.4-0.4-3.5-3-3.8v-0.5h9.2v0.5c-2.6,0.4-3,0.4-3,3.8v5.5h10.2v-5.5c0-3.4-0.4-3.5-3-3.8
			v-0.5h9.2v0.5c-2.6,0.4-3,0.4-3,3.8V181.3z"/>
		<path class="st0" d="M1296.3,185.1c2-0.2,2.3-0.7,4.1-5.1l6.5-16.3c0.6-0.1,1.2-0.4,1.6-0.9h0.1l7.7,19.4c0.9,2.2,1.2,2.9,3.2,3
			v0.5h-8.7v-0.5c2.1-0.2,2.7-0.8,2.1-2.3l-1.7-4.2h-8.9l-0.2,0.4c-2.2,5.5-1.8,5.9,0.8,6.1v0.5h-6.7L1296.3,185.1L1296.3,185.1z
			 M1302.9,177.1h7.7l-3.9-9.8L1302.9,177.1z"/>
		<path class="st0" d="M1354.3,163.9c2.3,0,4.4-0.1,5.4-0.1c6.3,0,8.7,1.7,8.7,4.9c0,2.6-2.1,4.5-4.6,5.2v0.1c2.4,0.5,5.7,2,5.7,5.2
			c0,3.1-2.1,6.4-9.5,6.4c-1.1,0-3.1-0.1-5.7-0.1h-3.5v-0.5c2.6-0.4,3-0.4,3-3.8v-13c0-3.4-0.4-3.5-3-3.8v-0.5L1354.3,163.9
			L1354.3,163.9z M1357,173.9h3.2c3.7,0,4.8-2.2,4.8-4.6c0-3.1-1.3-4.3-5.8-4.3h-2.2V173.9z M1357,183.6c0,0.8,0.2,1.1,1.2,1.1h1.3
			c4.6,0,6.4-1.8,6.4-5.1c0-2.9-1.4-4.6-5.7-4.6h-3.2V183.6z"/>
		<path class="st0" d="M1408.3,181.3c0,3.4,0.4,3.5,3,3.8v0.5h-9.2v-0.5c2.6-0.4,3-0.4,3-3.8v-13c0-3.4-0.4-3.5-3-3.8v-0.5h9.2v0.5
			c-2.6,0.4-3,0.4-3,3.8V181.3z"/>
		<path class="st0" d="M1449,185.1c2.9-0.3,3.3-0.7,3.3-3.8v-16.4h-1c-4.5,0-5.8,0.6-7.5,5.6h-0.6l0.9-6.6c2.2,0.1,4.8,0.1,6.6,0.1
			h6.5c1.8,0,4.4,0,6.6-0.1l0.9,6.6h-0.5c-1.7-5-3-5.6-7.6-5.6h-1v16.4c0,3.1,0.4,3.5,3.3,3.8v0.6h-9.9V185.1z"/>
		<path class="st0" d="M1492.8,185.1c2-0.2,2.3-0.7,4.1-5.1l6.5-16.3c0.6-0.1,1.2-0.4,1.6-0.9h0.1l7.7,19.4c0.9,2.2,1.2,2.9,3.2,3
			v0.5h-8.7v-0.5c2.1-0.2,2.7-0.8,2.1-2.3l-1.7-4.2h-8.9l-0.2,0.4c-2.2,5.5-1.8,5.9,0.8,6.1v0.5h-6.7L1492.8,185.1L1492.8,185.1z
			 M1499.5,177.1h7.7l-3.9-9.8L1499.5,177.1z"/>
		<path class="st0" d="M1549.9,185.1c2.9-0.3,3.3-0.7,3.3-3.8v-16.4h-1c-4.5,0-5.8,0.6-7.5,5.6h-0.6l0.9-6.6
			c2.2,0.1,4.8,0.1,6.6,0.1h6.5c1.8,0,4.4,0,6.6-0.1l0.9,6.6h-0.5c-1.7-5-3-5.6-7.6-5.6h-1v16.4c0,3.1,0.4,3.5,3.3,3.8v0.6h-9.9
			V185.1z"/>
		<path class="st0" d="M1637.1,179.4c0-3.4,3-5.2,6-6.2c-1.6-1.9-2.3-3.6-2.3-5.1c0-2.9,2.4-4.6,5.7-4.6c2.8,0,5.1,1.4,5.1,4
			c0,2.3-2.4,4.1-4.9,5.1l5.8,6.5c0.9-2.1,1.1-4.5,0.9-6.8h2.4c-0.1,3.1-1.1,5.6-2.5,7.8l3.5,4l-2.4,2.1l-3-3.3
			c-2,2.2-3.8,3.3-6.8,3.3C1640.4,186.1,1637.1,183.1,1637.1,179.4z M1640.8,178.6c0,3.3,1.9,5.9,5.1,5.9c2.2,0,3.8-1.1,5-2.6
			l-7.2-8.1c0,0-0.1,0-0.1-0.1C1641.7,174.6,1640.8,176.7,1640.8,178.6z M1646.5,164.4c-1.9,0-2.7,1.2-2.7,2.6
			c0,1.8,1.1,3.2,2.5,4.9c1.5-0.7,3.2-2,3.2-4.4C1649.5,165.4,1648.3,164.4,1646.5,164.4z"/>
		<path class="st0" d="M1740.2,163.3c5.6,0,11.2,4.1,11.2,11.4s-5.5,11.4-11.2,11.4s-11.2-4.1-11.2-11.4
			C1729,167.4,1734.6,163.3,1740.2,163.3z M1740.2,164.4c-4.3,0-7.5,4.2-7.5,10.3s3.1,10.3,7.5,10.3s7.5-4.2,7.5-10.3
			C1747.7,168.6,1744.5,164.4,1740.2,164.4z"/>
		<path class="st0" d="M1787.5,163.9c2.3,0,4.4-0.1,5.4-0.1c6.3,0,8.7,1.7,8.7,4.9c0,2.6-2.1,4.5-4.6,5.2v0.1c2.4,0.5,5.7,2,5.7,5.2
			c0,3.1-2.1,6.4-9.5,6.4c-1.1,0-3.1-0.1-5.7-0.1h-3.5v-0.5c2.6-0.4,3-0.4,3-3.8v-13c0-3.4-0.4-3.5-3-3.8v-0.5L1787.5,163.9
			L1787.5,163.9z M1790.2,173.9h3.2c3.7,0,4.8-2.2,4.8-4.6c0-3.1-1.3-4.3-5.8-4.3h-2.2L1790.2,173.9L1790.2,173.9z M1790.2,183.6
			c0,0.8,0.2,1.1,1.2,1.1h1.3c4.6,0,6.4-1.8,6.4-5.1c0-2.9-1.4-4.6-5.7-4.6h-3.2V183.6z"/>
		<path class="st0" d="M1837.2,164.5v-0.5h9.2v0.5c-2.6,0.4-3,0.4-3,3.8v10.4c0,6-2.7,7.4-5.4,7.4c-1.1,0-2.8-0.2-3.5-0.4v-4h0.3
			c0.8,1.3,2.2,3.4,3.5,3.4c0.9,0,1.9-0.4,1.9-6.1v-10.6C1840.2,164.9,1839.8,164.8,1837.2,164.5z"/>
		<path class="st0" d="M1889.1,185.7h-11v-0.5c2.6-0.4,3-0.4,3-3.8v-13c0-3.4-0.4-3.5-3-3.8v-0.5h10.6c1.8,0,4.4,0,6.6-0.1l0.9,6.6
			h-0.5c-1.7-5.3-4.1-5.4-9.5-5.4h-1.7v8.8h4.2c1.7,0,2.8-0.8,3.1-3.4h0.5v8h-0.5c-0.3-2.5-1.4-3.4-3.1-3.4h-4.2v8.2
			c0,1.1,0.2,1.4,1.3,1.4h0.5c5.7,0,8.4-0.5,10.2-5.6h0.6l-1.2,6.6C1893.5,185.7,1890.9,185.7,1889.1,185.7z"/>
		<path class="st0" d="M1934.7,185.1c2.9-0.3,3.3-0.7,3.3-3.8v-16.4h-1c-4.5,0-5.8,0.6-7.5,5.6h-0.6l0.9-6.6
			c2.2,0.1,4.8,0.1,6.6,0.1h6.5c1.8,0,4.4,0,6.6-0.1l0.9,6.6h-0.5c-1.7-5-3-5.6-7.6-5.6h-1v16.4c0,3.1,0.4,3.5,3.3,3.8v0.6h-9.9
			V185.1z"/>
		<path class="st0" d="M1983.1,184.5v-7.4h0.6c0.8,7,3.6,7.9,6.3,7.9c2.6,0,5.1-1.4,5.1-4.3c0-2.2-1.9-3.3-4.3-4.4l-2.3-1
			c-3.2-1.4-5.2-3.4-5.2-6.3c0-3.3,3.2-5.8,7.2-5.8c2.2,0,4.6,0.5,6.1,1.4l0.1,6.3h-0.6c-0.7-5.3-3-6.6-5.7-6.6
			c-2.4,0-4.5,1.3-4.5,3.6c0,2.3,1.9,3.3,3.4,4l2.3,1c3.5,1.5,6.2,3.1,6.2,6.6c0,4.3-3.9,6.5-7.8,6.5
			C1987.2,186.1,1984.6,185.4,1983.1,184.5z"/>
	</g>
</g>
</svg>
