<?xml version="1.0" encoding="utf-8"?>
<!-- Generator: Adobe Illustrator 24.1.0, SVG Export Plug-In . SVG Version: 6.00 Build 0)  -->
<svg version="1.1" id="Calque_1" xmlns="http://www.w3.org/2000/svg" xmlns:xlink="http://www.w3.org/1999/xlink" x="0px" y="0px"
	 viewBox="0 0 590.3 48.7" style="enable-background:new 0 0 590.3 48.7;" xml:space="preserve">
<style type="text/css">
	.st0{fill:#FFFFFF;}
</style>
<g>
	<path class="st0" d="M0,17.6v-4.9h0.4C0.9,17.3,2.8,18,4.6,18C6.3,18,8,17.1,8,15.1c0-1.4-1.3-2.2-2.9-2.9l-1.6-0.7
		c-2.1-0.9-3.5-2.3-3.5-4.2c0-2.2,2.2-3.8,4.8-3.8c1.5,0,3.1,0.3,4,0.9L9,8.6H8.6C8.1,5,6.6,4.2,4.8,4.2c-1.6,0-3,0.9-3,2.4
		c0,1.5,1.3,2.2,2.3,2.7l1.6,0.7C8,11,9.8,12,9.8,14.4c0,2.9-2.6,4.3-5.2,4.3C2.8,18.7,1.1,18.2,0,17.6z"/>
	<path class="st0" d="M27.1,18.1c2-0.2,2.2-0.5,2.2-2.5v-11h-0.7c-3,0-3.9,0.4-5,3.7h-0.4l0.6-4.4c1.5,0.1,3.2,0.1,4.4,0.1h4.3
		c1.2,0,2.9,0,4.4-0.1l0.6,4.4h-0.4c-1.1-3.3-2-3.7-5-3.7h-0.7v11c0,2.1,0.2,2.4,2.2,2.5v0.4h-6.6V18.1z"/>
	<path class="st0" d="M50.4,4.3V3.9h6.2v0.4c-1.7,0.2-2,0.3-2,2.6v5.9c0,3.1,1.1,5,3.8,5c3.1,0,4-2.4,4-5.3V6.9c0-2.3-0.2-2.3-2-2.6
		V3.9h4.9v0.4c-1.7,0.2-2,0.3-2,2.6v5.6c0,4.2-1.7,6.2-5.5,6.2c-4.1,0-5.4-2.4-5.4-5.7V6.9C52.4,4.6,52.2,4.5,50.4,4.3z"/>
	<path class="st0" d="M85,3.9c3.8,0,7.6,2.1,7.6,7.2s-3.8,7.3-7.6,7.3h-6.5v-0.4c1.7-0.2,2-0.3,2-2.6V6.9c0-2.3-0.2-2.3-2-2.6V3.9
		H85z M85,17.7c2.9,0,5.1-2.3,5.1-6.5c0-4.3-2.2-6.5-5.1-6.5h-2.3v13.1H85z"/>
	<path class="st0" d="M110.5,15.5c0,2.3,0.2,2.3,2,2.6v0.4h-6.2v-0.4c1.7-0.2,2-0.3,2-2.6V6.9c0-2.3-0.2-2.3-2-2.6V3.9h6.2v0.4
		c-1.7,0.2-2,0.3-2,2.6V15.5z"/>
	<path class="st0" d="M133.6,3.5c3.8,0,7.4,2.7,7.4,7.6c0,4.9-3.7,7.6-7.4,7.6c-3.8,0-7.4-2.7-7.4-7.6
		C126.2,6.3,129.9,3.5,133.6,3.5z M133.6,4.3c-2.9,0-5,2.8-5,6.9c0,4.1,2.1,6.9,5,6.9c2.9,0,5-2.8,5-6.9
		C138.6,7,136.5,4.3,133.6,4.3z"/>
	<path class="st0" d="M178.5,3.9c3.8,0,7.6,2.1,7.6,7.2s-3.8,7.3-7.6,7.3H172v-0.4c1.7-0.2,2-0.3,2-2.6V6.9c0-2.3-0.2-2.3-2-2.6V3.9
		H178.5z M178.5,17.7c2.9,0,5.1-2.3,5.1-6.5c0-4.3-2.2-6.5-5.1-6.5h-2.3v13.1H178.5z"/>
	<path class="st0" d="M207.2,18.4h-7.4v-0.4c1.7-0.2,2-0.3,2-2.6V6.9c0-2.3-0.2-2.3-2-2.6V3.9h7.1c1.2,0,2.9,0,4.4-0.1l0.6,4.4h-0.4
		c-1.1-3.6-2.7-3.6-6.4-3.6h-1.2v5.9h2.8c1.1,0,1.9-0.6,2.1-2.2h0.4v5.4h-0.4c-0.2-1.7-0.9-2.2-2.1-2.2h-2.8v5.4
		c0,0.7,0.1,0.9,0.9,0.9h0.3c3.8,0,5.6-0.3,6.8-3.7h0.4l-0.8,4.4C210.2,18.4,208.5,18.4,207.2,18.4z"/>
	<path class="st0" d="M251,17.7c2.9,0,4.5-1.8,5-3.4l0.5,0.2c-0.5,2.1-2.6,4.2-5.9,4.2c-4.6,0-7.2-3.5-7.2-7.6
		c0-4.7,3.6-7.6,7.8-7.6c1.5,0,2.9,0.2,4.3,0.8l0.4,4.4h-0.4c-0.8-3.3-2.3-4.5-4.7-4.5c-2.4,0-4.9,2-4.9,6.9
		C245.9,15.3,247.9,17.7,251,17.7z"/>
	<path class="st0" d="M270,18.1c1.7-0.2,2-0.3,2-2.6V6.9c0-2.3-0.2-2.3-2-2.6V3.9h2.4c1.3,0,2.9,0,3.7,0c3.4,0,6.2,0.8,6.2,3.8
		c0,2.3-1.6,3.3-3.8,3.7l3,4.6c0.9,1.5,1.6,1.9,2.7,2v0.4h-4c-0.3-0.6-1-1.9-1.6-2.8l-1.1-1.7c-0.7-1.1-1.1-1.8-1.4-2.3h-1.9v4
		c0,2.3,0.2,2.3,2,2.5v0.4H270V18.1z M275.9,4.7h-1.7v6.2h1.7c2.5,0,3.9-0.4,3.9-3.1S278.4,4.7,275.9,4.7z"/>
	<path class="st0" d="M303.9,18.4h-7.4v-0.4c1.7-0.2,2-0.3,2-2.6V6.9c0-2.3-0.2-2.3-2-2.6V3.9h7.1c1.2,0,2.9,0,4.4-0.1l0.6,4.4h-0.4
		c-1.1-3.6-2.7-3.6-6.4-3.6h-1.2v5.9h2.8c1.1,0,1.9-0.6,2.1-2.2h0.4v5.4h-0.4c-0.2-1.7-0.9-2.2-2.1-2.2h-2.8v5.4
		c0,0.7,0.1,0.9,0.9,0.9h0.3c3.8,0,5.6-0.3,6.8-3.7h0.4l-0.8,4.4C306.8,18.4,305.1,18.4,303.9,18.4z M303,2.6h-0.4l1.7-2.6h3.1
		L303,2.6z"/>
	<path class="st0" d="M322.1,18.1c1.4-0.1,1.6-0.5,2.7-3.4l4.3-10.9c0.4,0,0.8-0.3,1-0.6h0.1l5.2,12.9c0.6,1.5,0.8,1.9,2.1,2v0.4
		h-5.8v-0.4c1.4-0.2,1.8-0.5,1.4-1.6l-1.1-2.8h-5.9L326,14c-1.4,3.7-1.2,3.9,0.5,4.1v0.4h-4.5V18.1z M326.5,12.7h5.1l-2.6-6.5
		L326.5,12.7z"/>
	<path class="st0" d="M352.2,18.1c2-0.2,2.2-0.5,2.2-2.5v-11h-0.7c-3,0-3.9,0.4-5,3.7h-0.4l0.6-4.4c1.5,0.1,3.2,0.1,4.4,0.1h4.3
		c1.2,0,2.9,0,4.4-0.1l0.6,4.4h-0.4c-1.1-3.3-2-3.7-5-3.7h-0.7v11c0,2.1,0.2,2.4,2.2,2.5v0.4h-6.6V18.1z"/>
	<path class="st0" d="M380.1,15.5c0,2.3,0.2,2.3,2,2.6v0.4h-6.2v-0.4c1.7-0.2,2-0.3,2-2.6V6.9c0-2.3-0.2-2.3-2-2.6V3.9h6.2v0.4
		c-1.7,0.2-2,0.3-2,2.6V15.5z"/>
	<path class="st0" d="M403.2,3.5c3.8,0,7.4,2.7,7.4,7.6c0,4.9-3.7,7.6-7.4,7.6c-3.8,0-7.4-2.7-7.4-7.6
		C395.8,6.3,399.5,3.5,403.2,3.5z M403.2,4.3c-2.9,0-5,2.8-5,6.9c0,4.1,2.1,6.9,5,6.9c2.9,0,5-2.8,5-6.9
		C408.2,7,406.1,4.3,403.2,4.3z"/>
	<path class="st0" d="M434.5,4.3V3.9h4.9v0.4c-1.7,0.2-2,0.3-2,2.6v11.8h-0.8L427.3,7v8.5c0,2.3,0.2,2.3,2,2.6v0.4h-4.9v-0.4
		c1.7-0.2,2-0.3,2-2.6V5.8c-0.7-0.8-1.1-1.3-1.7-1.6V3.9h3l8.7,11V6.9C436.5,4.6,436.2,4.5,434.5,4.3z"/>
	<path class="st0" d="M477,18.4h-7.4v-0.4c1.7-0.2,2-0.3,2-2.6V6.9c0-2.3-0.2-2.3-2-2.6V3.9h7.1c1.2,0,2.9,0,4.4-0.1l0.6,4.4h-0.4
		c-1.1-3.6-2.7-3.6-6.4-3.6h-1.2v5.9h2.8c1.1,0,1.9-0.6,2.1-2.2h0.4v5.4h-0.4c-0.2-1.7-0.9-2.2-2.1-2.2h-2.8v5.4
		c0,0.7,0.1,0.9,0.9,0.9h0.3c3.8,0,5.6-0.3,6.8-3.7h0.4l-0.8,4.4C480,18.4,478.3,18.4,477,18.4z"/>
	<path class="st0" d="M505.9,4.3V3.9h4.9v0.4c-1.7,0.2-2,0.3-2,2.6v11.8H508L498.7,7v8.5c0,2.3,0.2,2.3,2,2.6v0.4h-4.9v-0.4
		c1.7-0.2,2-0.3,2-2.6V5.8c-0.7-0.8-1.1-1.3-1.7-1.6V3.9h3l8.7,11V6.9C507.9,4.6,507.7,4.5,505.9,4.3z"/>
	<path class="st0" d="M527.5,18.1c2-0.2,2.2-0.5,2.2-2.5v-11H529c-3,0-3.9,0.4-5,3.7h-0.4l0.6-4.4c1.5,0.1,3.2,0.1,4.4,0.1h4.3
		c1.2,0,2.9,0,4.4-0.1l0.6,4.4h-0.4c-1.1-3.3-2-3.7-5-3.7h-0.7v11c0,2.1,0.2,2.4,2.2,2.5v0.4h-6.6V18.1z"/>
	<path class="st0" d="M551.2,18.1c1.7-0.2,2-0.3,2-2.6V6.9c0-2.3-0.2-2.3-2-2.6V3.9h2.4c1.3,0,2.9,0,3.7,0c3.4,0,6.2,0.8,6.2,3.8
		c0,2.3-1.6,3.3-3.8,3.7l3,4.6c0.9,1.5,1.6,1.9,2.7,2v0.4h-4c-0.3-0.6-1-1.9-1.6-2.8l-1.1-1.7c-0.7-1.1-1.1-1.8-1.4-2.3h-1.9v4
		c0,2.3,0.2,2.3,2,2.5v0.4h-6.2V18.1z M557.1,4.7h-1.7v6.2h1.7c2.5,0,3.9-0.4,3.9-3.1S559.6,4.7,557.1,4.7z"/>
	<path class="st0" d="M585.2,18.4h-7.4v-0.4c1.7-0.2,2-0.3,2-2.6V6.9c0-2.3-0.2-2.3-2-2.6V3.9h7.1c1.2,0,2.9,0,4.4-0.1l0.6,4.4h-0.4
		c-1.1-3.6-2.7-3.6-6.4-3.6H582v5.9h2.8c1.1,0,1.9-0.6,2.1-2.2h0.4v5.4h-0.4c-0.2-1.7-0.9-2.2-2.1-2.2H582v5.4
		c0,0.7,0.1,0.9,0.9,0.9h0.3c3.8,0,5.6-0.3,6.8-3.7h0.4l-0.8,4.4C588.1,18.4,586.4,18.4,585.2,18.4z"/>
	<path class="st0" d="M117.4,45.5c0,2.3,0.2,2.3,2,2.6v0.4h-6.2v-0.4c1.7-0.2,2-0.3,2-2.6v-4.1h-6.8v4.1c0,2.3,0.2,2.3,2,2.6v0.4
		h-6.2v-0.4c1.7-0.2,2-0.3,2-2.6v-8.7c0-2.3-0.2-2.3-2-2.6v-0.4h6.2v0.4c-1.7,0.2-2,0.3-2,2.6v3.7h6.8v-3.7c0-2.3-0.2-2.3-2-2.6
		v-0.4h6.2v0.4c-1.7,0.2-2,0.3-2,2.6V45.5z"/>
	<path class="st0" d="M132.2,48.1c1.4-0.1,1.6-0.5,2.7-3.4l4.3-10.9c0.4,0,0.8-0.3,1-0.6h0.1l5.2,12.9c0.6,1.5,0.8,1.9,2.1,2v0.4
		h-5.8v-0.4c1.4-0.2,1.8-0.5,1.4-1.6l-1.1-2.8h-5.9l-0.1,0.3c-1.4,3.7-1.2,3.9,0.5,4.1v0.4h-4.5V48.1z M136.6,42.7h5.1l-2.6-6.5
		L136.6,42.7z"/>
	<path class="st0" d="M162.9,33.9c1.5,0,3,0,3.6,0c4.2,0,5.8,1.1,5.8,3.3c0,1.7-1.4,3-3.1,3.5v0c1.6,0.3,3.8,1.3,3.8,3.5
		c0,2.1-1.4,4.3-6.4,4.3c-0.7,0-2,0-3.8,0h-2.3v-0.4c1.7-0.2,2-0.3,2-2.6v-8.7c0-2.3-0.2-2.3-2-2.6v-0.4H162.9z M164.7,40.6h2.1
		c2.5,0,3.2-1.5,3.2-3.1c0-2.1-0.9-2.8-3.9-2.8h-1.4V40.6z M164.7,47.1c0,0.5,0.1,0.7,0.8,0.7h0.9c3.1,0,4.3-1.2,4.3-3.4
		c0-1.9-0.9-3-3.8-3h-2.1V47.1z"/>
	<path class="st0" d="M190.9,45.5c0,2.3,0.2,2.3,2,2.6v0.4h-6.2v-0.4c1.7-0.2,2-0.3,2-2.6v-8.7c0-2.3-0.2-2.3-2-2.6v-0.4h6.2v0.4
		c-1.7,0.2-2,0.3-2,2.6V45.5z"/>
	<path class="st0" d="M210,48.1c2-0.2,2.2-0.5,2.2-2.5v-11h-0.7c-3,0-3.9,0.4-5,3.7h-0.4l0.6-4.4c1.5,0.1,3.2,0.1,4.4,0.1h4.3
		c1.2,0,2.9,0,4.4-0.1l0.6,4.4h-0.4c-1.1-3.3-2-3.7-5-3.7h-0.7v11c0,2.1,0.2,2.4,2.2,2.5v0.4H210V48.1z"/>
	<path class="st0" d="M231.3,48.1c1.4-0.1,1.6-0.5,2.7-3.4l4.3-10.9c0.4,0,0.8-0.3,1-0.6h0.1l5.2,12.9c0.6,1.5,0.8,1.9,2.1,2v0.4
		h-5.8v-0.4c1.4-0.2,1.8-0.5,1.4-1.6l-1.1-2.8h-5.9l-0.1,0.3c-1.4,3.7-1.2,3.9,0.5,4.1v0.4h-4.5V48.1z M235.7,42.7h5.1l-2.6-6.5
		L235.7,42.7z"/>
	<path class="st0" d="M261.4,48.1c2-0.2,2.2-0.5,2.2-2.5v-11h-0.7c-3,0-3.9,0.4-5,3.7h-0.4l0.6-4.4c1.5,0.1,3.2,0.1,4.4,0.1h4.3
		c1.2,0,2.9,0,4.4-0.1l0.6,4.4h-0.4c-1.1-3.3-2-3.7-5-3.7h-0.7v11c0,2.1,0.2,2.4,2.2,2.5v0.4h-6.6V48.1z"/>
	<path class="st0" d="M302.2,44.2c0-2.3,2-3.5,4-4.2c-1.1-1.3-1.5-2.4-1.5-3.4c0-1.9,1.6-3.1,3.8-3.1c1.8,0,3.4,0.9,3.4,2.6
		c0,1.5-1.6,2.7-3.2,3.4l3.9,4.4c0.6-1.4,0.7-3,0.6-4.6h1.6c-0.1,2-0.7,3.8-1.6,5.2l2.4,2.7l-1.6,1.4l-2-2.2
		c-1.3,1.5-2.6,2.2-4.5,2.2C304.4,48.7,302.2,46.7,302.2,44.2z M304.7,43.7c0,2.2,1.3,3.9,3.4,3.9c1.5,0,2.5-0.7,3.3-1.8l-4.8-5.4
		c0,0,0,0,0,0C305.3,41,304.7,42.4,304.7,43.7z M308.5,34.3c-1.2,0-1.8,0.8-1.8,1.7c0,1.2,0.7,2.1,1.7,3.2c1-0.5,2.1-1.3,2.1-3
		C310.5,34.9,309.7,34.3,308.5,34.3z"/>
	<path class="st0" d="M353.7,33.5c3.8,0,7.4,2.7,7.4,7.6c0,4.9-3.7,7.6-7.4,7.6c-3.8,0-7.4-2.7-7.4-7.6
		C346.3,36.3,350,33.5,353.7,33.5z M353.7,34.3c-2.9,0-5,2.8-5,6.9c0,4.1,2.1,6.9,5,6.9c2.9,0,5-2.8,5-6.9
		C358.7,37,356.6,34.3,353.7,34.3z"/>
	<path class="st0" d="M377.3,33.9c1.5,0,3,0,3.6,0c4.2,0,5.8,1.1,5.8,3.3c0,1.7-1.4,3-3.1,3.5v0c1.6,0.3,3.8,1.3,3.8,3.5
		c0,2.1-1.4,4.3-6.4,4.3c-0.7,0-2,0-3.8,0h-2.3v-0.4c1.7-0.2,2-0.3,2-2.6v-8.7c0-2.3-0.2-2.3-2-2.6v-0.4H377.3z M379.1,40.6h2.1
		c2.5,0,3.2-1.5,3.2-3.1c0-2.1-0.9-2.8-3.9-2.8h-1.4V40.6z M379.1,47.1c0,0.5,0.1,0.7,0.8,0.7h0.9c3.1,0,4.3-1.2,4.3-3.4
		c0-1.9-0.9-3-3.8-3h-2.1V47.1z"/>
	<path class="st0" d="M402.4,34.3v-0.4h6.2v0.4c-1.7,0.2-2,0.3-2,2.6v6.9c0,4-1.8,4.9-3.6,4.9c-0.7,0-1.8-0.1-2.4-0.3v-2.7h0.2
		c0.5,0.9,1.5,2.2,2.3,2.2c0.6,0,1.2-0.2,1.2-4.1v-7C404.4,34.6,404.1,34.5,402.4,34.3z"/>
	<path class="st0" d="M429,48.4h-7.4v-0.4c1.7-0.2,2-0.3,2-2.6v-8.7c0-2.3-0.2-2.3-2-2.6v-0.4h7.1c1.2,0,2.9,0,4.4-0.1l0.6,4.4h-0.4
		c-1.1-3.6-2.7-3.6-6.4-3.6h-1.2v5.9h2.8c1.1,0,1.9-0.6,2.1-2.2h0.4v5.4h-0.4c-0.2-1.7-0.9-2.2-2.1-2.2h-2.8v5.4
		c0,0.7,0.1,0.9,0.9,0.9h0.3c3.8,0,5.6-0.3,6.8-3.7h0.4l-0.8,4.4C431.9,48.4,430.2,48.4,429,48.4z"/>
	<path class="st0" d="M451.4,48.1c2-0.2,2.2-0.5,2.2-2.5v-11H453c-3,0-3.9,0.4-5,3.7h-0.4l0.6-4.4c1.5,0.1,3.2,0.1,4.4,0.1h4.3
		c1.2,0,2.9,0,4.4-0.1l0.6,4.4h-0.4c-1.1-3.3-2-3.7-5-3.7h-0.7v11c0,2.1,0.2,2.4,2.2,2.5v0.4h-6.6V48.1z"/>
	<path class="st0" d="M475.7,47.6v-4.9h0.4c0.5,4.6,2.4,5.3,4.2,5.3c1.7,0,3.4-0.9,3.4-2.9c0-1.4-1.3-2.2-2.9-2.9l-1.6-0.7
		c-2.1-0.9-3.5-2.3-3.5-4.2c0-2.2,2.2-3.8,4.8-3.8c1.5,0,3.1,0.3,4,0.9l0.1,4.2h-0.4c-0.5-3.6-2-4.4-3.8-4.4c-1.6,0-3,0.9-3,2.4
		s1.3,2.2,2.3,2.7l1.6,0.7c2.3,1,4.1,2.1,4.1,4.4c0,2.9-2.6,4.3-5.2,4.3C478.5,48.7,476.7,48.2,475.7,47.6z"/>
</g>
</svg>
